<?xml version="1.0" encoding="utf-8"?>
<!-- Generator: Adobe Illustrator 24.3.0, SVG Export Plug-In . SVG Version: 6.00 Build 0)  -->
<svg version="1.1" id="Layer_1" xmlns="http://www.w3.org/2000/svg" xmlns:xlink="http://www.w3.org/1999/xlink" x="0px" y="0px"
	 viewBox="0 0 600 337.48" style="enable-background:new 0 0 600 337.48;" xml:space="preserve">
<style type="text/css">
	.st0{clip-path:url(#SVGID_2_);fill:#CBD7EE;}
	.st1{clip-path:url(#SVGID_2_);fill:#2E326B;}
	.st2{clip-path:url(#SVGID_2_);}
	.st3{fill:#67C6B9;}
	.st4{fill:#1B4898;}
	.st5{fill:#222456;}
	.st6{fill:#FFC942;}
	.st7{fill:#FBD9CD;}
	.st8{fill:#CFD6E0;}
	.st9{fill:#F9AA4D;}
	.st10{fill:#AFB5BB;}
	.st11{fill:#242657;}
	.st12{fill:#FBC6B5;}
	.st13{fill:#2B4050;}
	.st14{fill:#F3F3F4;}
	.st15{fill:#FDFDFD;}
	.st16{fill:#8BD5F5;}
	.st17{fill:#FFFFFF;}
	.st18{fill:#E7E9E8;}
	.st19{clip-path:url(#SVGID_2_);fill:#404483;}
</style>
<g>
	<defs>
		<rect id="SVGID_1_" width="600" height="337.48"/>
	</defs>
	<clipPath id="SVGID_2_">
		<use xlink:href="#SVGID_1_"  style="overflow:visible;"/>
	</clipPath>
	<rect x="0" class="st0" width="600" height="337.4"/>
	<path class="st1" d="M-22.17-14.93c0,0,138.52-57.91,159.65,55.57s91.57,83.74,117.39,83.74s60.47,8.61,41.48,95.31
		c-19.4,88.57,93.13,120.37,128.35,119.13s-176.87,74.35-176.87,74.35l-339.65-76.7l-3.91-160.59L-22.17-14.93z"/>
	<g class="st2">
		<path class="st3" d="M570.54,256.3c2.58-0.56,5.08-1.46,7.69-1.92c0.2-0.04,0.42-0.05,0.61-0.12c0.51-0.19,0.53,0.08,0.45,0.46
			c-0.33,1.58-0.67,3.16-0.99,4.74c-1.03,5.13-2.02,10.26-2.64,15.46c-0.41,3.44-1.52,6.68-3.48,9.59c-1.43,2.13-3.16,3.9-5.53,4.98
			c-0.3,0.14-0.56,0.36-0.83,0.54c-0.31,0.11-0.62,0.22-0.93,0.33c-1.25,0.21-2.51,0.41-3.76,0.62c-0.53,0.01-1.07,0.02-1.6,0.03
			c-2.32-0.06-4.64-0.13-6.95-0.33c-3.18-0.29-6.37-0.4-9.51-1.05c-1.67-0.35-3.41-0.43-5.11-0.63c-0.28-0.02-0.55-0.04-0.83-0.07
			c-0.9-0.27-1.83-0.32-2.76-0.43c-0.43-0.06-0.86-0.11-1.29-0.17c-0.89-0.57-1.97-0.34-2.92-0.71c0.2-0.47,0.8-0.6,0.88-1.13
			c0.14-0.12,0.29-0.23,0.41-0.36c1.88-1.96,3.54-4.1,5.04-6.38c1.56-2.38,3.27-4.65,4.92-6.97c0.06-0.05,0.13-0.09,0.18-0.15
			c1.53-1.9,3.07-3.78,4.79-5.51c0.59-0.59,1.25-1.1,1.82-1.69c1.54-1.6,3.41-2.74,5.36-3.74c1.19-0.61,2.51-0.94,3.75-1.45
			c1.81-0.75,3.75-1.16,5.61-1.79C565.41,257.6,567.99,257.01,570.54,256.3z"/>
		<path class="st4" d="M551.75,211.52c0.25-0.38,0.35-0.59,0.85-0.08c0.8,0.8,1.78,1.44,2.6,2.25c-0.49,0.43-0.97,0.85-1.43,1.31
			c-2.66,2.66-4.12,5.98-5.31,9.44c-0.98,2.86-1.51,5.83-2.19,8.78c-1.05,4.6-2.69,9.02-4.2,13.48c-0.1,0.3-0.4,0.68-0.12,0.94
			c0.27,0.25,0.7,0.13,1.05,0.02c0.27-0.08,0.5-0.23,0.72-0.43c0.55-0.49,1.13-0.88,1.96-0.51c0.5,0.22,1.09,0.15,1.63,0.04
			c0.92-0.18,1.51-1.22,1.38-2.14c-0.21-1.43-0.64-2.9-0.18-4.32c0.33-1,0.44-1.99,0.36-3c-0.08-0.98-0.22-1.96-0.32-2.95
			c-0.33-3.33-0.35-6.65,0.35-9.95c0.62-2.87,3.26-5.14,6.19-5.02c1.5,0.06,2.94,0.56,4.17,1.51c0.12,0.09,0.2,0.24,0.3,0.35
			c1.52,1.68,2.36,3.72,3.07,5.82c0.74,2.2,1.23,4.46,1.33,6.79c0.12,2.66-0.61,5.15-1.37,7.65c-0.63,2.07-1.22,4.14-1.19,6.34
			c0.02,1.19-0.15,2.45-0.87,3.44c-1.41,1.95-2.59,4.1-4.39,5.77c-0.23,0.21-0.43,0.35-0.73,0.38c-3.42,0.32-6.85,0.61-10.28,0.8
			c-1.64,0.09-3.28,0.22-4.91,0.31c-0.24,0.01-0.39,0.11-0.5,0.3c-1.65,0.05-3.3,0.1-4.95,0.15c0.12-0.19,0.24-0.39,0.36-0.57
			c1.05-1.5,0.32-3.35-1.46-3.74c-0.02-0.23,0.02-0.48-0.12-0.69c-0.08-1.72-0.14-3.44-0.24-5.15c-0.04-0.67,0.14-0.95,0.89-0.95
			c2.22-0.02,4.43-0.14,6.65-0.19c0.55-0.01,0.77-0.14,0.91-0.73c0.97-3.99,2.05-7.96,3.01-11.95c0.69-2.86,1.26-5.74,1.88-8.61
			c0.75-2.92,1.44-5.86,2.27-8.76C549.56,215.46,550.28,213.31,551.75,211.52z"/>
		<path class="st5" d="M539.74,258.83c0.12-0.18,0.26-0.28,0.5-0.3c1.64-0.09,3.27-0.22,4.91-0.31c3.43-0.19,6.86-0.48,10.28-0.8
			c0.3-0.03,0.5-0.17,0.73-0.38c1.8-1.67,2.97-3.81,4.39-5.77c0.72-0.99,0.88-2.25,0.87-3.44c-0.03-2.21,0.56-4.27,1.19-6.34
			c0.76-2.5,1.48-4.99,1.37-7.65c-0.1-2.34-0.58-4.59-1.33-6.79c-0.71-2.1-1.55-4.14-3.07-5.82c-0.1-0.11-0.18-0.26-0.3-0.35
			c-1.23-0.94-2.68-1.44-4.17-1.51c-2.93-0.12-5.58,2.15-6.19,5.02c-0.71,3.3-0.69,6.61-0.35,9.95c0.1,0.98,0.24,1.97,0.32,2.95
			c0.09,1.01-0.03,1.99-0.36,3c-0.47,1.42-0.04,2.89,0.18,4.32c0.14,0.92-0.46,1.96-1.38,2.14c-0.54,0.11-1.13,0.18-1.63-0.04
			c-0.83-0.36-1.41,0.02-1.96,0.51c-0.22,0.2-0.46,0.35-0.72,0.43c-0.35,0.11-0.78,0.23-1.05-0.02c-0.28-0.26,0.02-0.64,0.12-0.94
			c1.51-4.46,3.14-8.89,4.2-13.48c0.67-2.94,1.21-5.92,2.19-8.78c1.19-3.47,2.65-6.79,5.31-9.44c0.46-0.46,0.94-0.88,1.43-1.31
			c1.52,0.71,2.86,1.7,4.22,2.66c0.32,0.23,0.66,0.42,1,0.61c1.85,1.05,3.08,2.71,4.31,4.38c0.76,1.05,1.41,2.18,2.16,3.22
			c1.29,1.81,1.44,3.85,1.6,5.93c0.44,5.64,0.9,11.29,1.35,16.93c0.24,2.96,0.47,5.93,0.7,8.89c-2.55,0.7-5.13,1.3-7.63,2.14
			c-1.86,0.63-3.8,1.04-5.61,1.79c-1.24,0.51-2.56,0.84-3.75,1.45c-1.95,1-3.81,2.14-5.36,3.74c-0.57,0.6-1.23,1.1-1.82,1.69
			c-1.73,1.73-3.26,3.61-4.79,5.51c-0.05,0.06-0.12,0.1-0.18,0.15c-0.9-0.38-1.56-0.99-1.91-1.92
			C538.9,266.83,539.33,262.83,539.74,258.83z"/>
		<path class="st6" d="M533.7,254.67c1.78,0.39,2.5,2.24,1.46,3.74c-0.13,0.19-0.24,0.38-0.36,0.57c-0.84,0.37-1.73,0.35-2.62,0.34
			c-0.1,0-0.21-0.01-0.31-0.01c-25.51,0-51.02,0-76.53,0c-0.55-0.01-1.1-0.04-1.64-0.03c-1.38,0.03-2.12-1.4-2.03-2.4
			c0.12-1.4,0.78-2.19,2.13-2.18c3.94,0.03,7.88,0.01,11.83,0.01c0.31,0,0.63,0.08,0.92-0.09c0.31,0.02,0.62,0.07,0.93,0.07
			c3.96,0,7.92,0.01,11.88,0c0.57,0,1.14-0.04,1.71-0.05c1.46,0.15,2.92,0.09,4.38,0.03c0,0,0.07,0.02,0.07,0.02
			s0.06-0.03,0.06-0.03c0.19,0,0.38,0.01,0.57,0.01c0.41,0.08,0.82,0.14,1.21-0.05c0.08,0,0.16,0.01,0.25,0.01
			c0.25,0.22,0.55,0.12,0.82,0.12c7.91,0.01,15.82,0.01,23.73,0c0.28,0,0.57-0.04,0.85-0.06c1.36,0,2.73,0.07,4.09-0.04
			c1.41,0.12,2.82,0.09,4.24,0.02c1.3,0.09,2.61,0.06,3.91,0.02c0.68,0.06,1.37,0.08,2.05,0c0.99,0,1.97,0,2.96,0
			c0.27,0.07,0.54,0.07,0.8-0.01c0.83,0.06,1.66,0.06,2.48,0C533.59,254.68,533.64,254.68,533.7,254.67z"/>
		<path class="st4" d="M481.04,254.65c-0.57,0.02-1.14,0.05-1.71,0.05c-3.96,0-7.92,0-11.88,0c-0.31,0-0.62-0.05-0.93-0.07
			c0.18-2.86,0.18-5.74,0.58-8.58c0.34-2.4,1.21-4.61,2.65-6.59c1.83-2.51,3.52-5.12,5-7.86c1.35-2.5,2.5-5.06,2.74-7.95
			c0.1-1.24,0.78-2.15,2-2.58c1,2.22,1.2,4.56,1.1,6.95c-0.01,0.34,0.04,0.67,0.07,1.01c0.21,2.19,0.93,4.26,1.48,6.37
			c0.61,2.35,0.44,4.71-0.17,7.01c-0.39,1.47-1.06,2.87-1.62,4.3c-0.37,0.95-0.32,1.08,0.71,1.28c1.22,0.24,2.46,0.44,3.68,0.66
			c0.29,0.05,0.66,0.02,0.7,0.46C482.88,250.09,481.48,251.99,481.04,254.65z"/>
		<path class="st4" d="M528.07,205.24c-1.53-1.05-1.44-2.04-0.93-3.19c1.07-2.44,2.47-4.65,4.18-6.7c1.29-1.55,2.81-2.8,4.55-3.77
			c1.13-0.63,2.45-0.62,3.67-0.39c3.89,0.72,6.94,2.73,8.81,6.28c0.76,1.44,0.8,3.11,1.03,4.71c0.32,2.19,0.41,4.41,0.59,6.62
			c-0.58,0.54-1.35,0.61-2.04,0.89c-1.4,0.56-2.42,0.15-3.32-0.94c-0.84-1.02-1.91-1.57-3.26-1.46c-0.66,0.05-1.14,0.3-1.45,0.97
			c-0.49,1.05-0.42,2.08-0.18,3.13c0.18,0.77-0.54,0.52-0.81,0.76c-0.2,0.18-0.5,0.26-0.61-0.13c-0.38-1.34-1.51-1.98-2.53-2.72
			c-0.4-0.29-0.69-0.62-0.69-1.15c0-0.64-0.2-1.26-0.5-1.79c-0.51-0.93-1.13-1.86-2.28-2.05c-1.05-0.17-2.1-0.06-3.05,0.57
			C528.91,205.09,528.52,205.31,528.07,205.24z"/>
		<path class="st5" d="M480.24,282.98c-1.72,2.8-3.13,5.77-4.73,8.64c-0.4,0.71-0.83,1.45-1.47,1.99c-0.78,0.66-1.56,0.42-1.87-0.56
			c-0.4-1.27-0.42-2.57-0.33-3.88c0.26-3.67,0.69-7.32,1.28-10.95c0.34-2.08,1.31-3.98,2.13-5.92c0.55-1.23,1.2-2.42,1.64-3.69
			c0.92-2.6,1.46-5.3,2.03-7.99c3.74,0.08,7.48,0.16,11.22,0.25c-0.52,1.32-1.08,2.63-1.56,3.97c-0.41,1.14-1.07,2.18-1.3,3.39
			c-0.64,0.87-0.89,1.91-1.33,2.87c-0.83,1.82-1.65,3.64-2.53,5.43c-0.77,1.58-1.45,3.21-2.36,4.72
			C480.93,281.9,480.45,282.37,480.24,282.98z"/>
		<path class="st7" d="M503.6,207.42c0.59,1.07,0.78,2.27,0.92,3.44c0.32,2.55,0.63,5.11,0.49,7.69c-0.37-0.01-0.3,0.25-0.3,0.48
			c0.01,0.77,0.01,1.54,0.02,2.32c-0.24,2.01-0.22,4.06-1,5.98c-0.11,0.05-0.3,0.08-0.32,0.16c-0.27,0.85-1.06,1.12-1.7,1.55
			c-0.11-0.16-0.26-0.12-0.42-0.09c-1.92,0.34-3.58-0.13-4.95-1.58c-0.51-0.54-1.12-0.97-1.68-1.46c-0.89-1.13-1.41-2.44-1.82-3.8
			c-0.11-0.38-0.21-0.78-0.75-0.69l0.03-0.01c0.03-0.13,0.03-0.25-0.09-0.34c-0.33-0.37-0.65-0.73-0.98-1.1
			c-0.22-0.31-0.15-0.81-0.61-0.97c-0.02-0.89-0.28-1.77-0.14-2.67c0.5,0.5,0.84,1.1,1.12,1.75c0.14,0.31,0.2,0.87,0.85,0.71
			c-0.4-0.98-0.83-1.94-0.55-2.96c0.22-0.81,0.16-1.6,0.05-2.4c-0.08-0.55-0.1-1.09-0.1-1.64c0-0.63,0.26-0.92,0.93-0.77
			c0.43,0.1,0.87,0.16,1.32,0.12c2.36-0.21,4.45-1.11,6.36-2.48c0.27-0.19,0.46-0.49,0.69-0.72
			C502.08,206.82,502.51,206.41,503.6,207.42z"/>
		<path class="st7" d="M528.07,205.24c0.45,0.06,0.85-0.16,1.17-0.37c0.95-0.63,1.99-0.74,3.05-0.57c1.15,0.19,1.77,1.13,2.28,2.05
			c0.29,0.53,0.5,1.15,0.5,1.79c0,0.53,0.29,0.86,0.69,1.15c1.02,0.73,2.15,1.38,2.53,2.72c0.11,0.38,0.41,0.3,0.61,0.13
			c0.28-0.24,0.99,0.01,0.81-0.76c-0.24-1.05-0.31-2.09,0.18-3.13c0.31-0.67,0.8-0.92,1.45-0.97c1.35-0.11,2.42,0.44,3.26,1.46
			c0.9,1.09,1.92,1.5,3.32,0.94c0.69-0.28,1.47-0.35,2.04-0.89c0.01,0.23,0.02,0.45,0.03,0.68c-0.71,0.75-1.32,1.57-1.87,2.44
			c-1.23,1.96-2.27,4-3.03,6.2c-0.46,1.34-0.73,2.73-1.2,4.07c-0.15-0.07-0.26-0.17-0.32-0.32c0-0.34-0.05-0.69,0.02-1.01
			c0.53-2.42,0.18-4.86,0.31-7.38c-0.5,0.55-0.32,1.17-0.46,1.7c-0.51,2.02-1.32,3.92-2.23,5.79c-0.13,0.27-0.42,0.56-0.14,0.91
			c-0.62,0.37-1.22,0.78-1.87,1.09c-1.1,0.51-2.24-0.07-3.14-1.25c-0.43-0.55-0.86-1.01-1.45-1.35c-0.29-0.17-0.53-0.34-0.35-0.74
			c0.04-0.09,0.05-0.28,0.02-0.29c-0.73-0.25-0.52-0.99-0.79-1.48c-0.22-0.39-0.55-0.58-1.03-0.55c-1.68,0.11-2.28,0.1-1.67-2.15
			c0.03-0.1,0.05-0.2,0.08-0.3c0.42-1.29,0.44-2.25-0.77-3.42C528.48,209.85,527.85,207.6,528.07,205.24z"/>
		<path class="st5" d="M490.46,219c0.46,0.16,0.39,0.66,0.61,0.97c-0.06,0.14-0.12,0.29-0.17,0.44c-0.78,2.64-1.54,5.29-2.32,7.93
			c-0.43,1.43-0.45,1.44,0.73,2.32c0.43,0.32,0.61,0.56,0.01,0.88c-0.41,0.22-0.78,0.52-1.19,0.74c-0.49,0.27-0.53,0.57-0.33,1.08
			c0.46,1.15,0.85,2.34,1.26,3.51c-0.57,0.01-1.15,0.06-1.71,0.01c-0.98-0.08-1.79,0.4-1.63,1.88c0.36,3.3,0.78,6.59,1.18,9.89
			c-0.02,0.21-0.04,0.42-0.06,0.64c-0.46-0.09-0.96,0.11-1.4-0.17c-0.04-0.44-0.41-0.41-0.7-0.46c-1.23-0.23-2.46-0.42-3.68-0.66
			c-1.03-0.2-1.08-0.33-0.71-1.28c0.56-1.43,1.24-2.83,1.62-4.3c0.6-2.3,0.78-4.66,0.17-7.01c-0.55-2.11-1.27-4.18-1.48-6.37
			c-0.03-0.34-0.09-0.68-0.07-1.01c0.1-2.39-0.09-4.73-1.1-6.95c1.62-0.23,3.24-0.48,4.86-0.67
			C486.44,220.15,488.43,219.48,490.46,219z"/>
		<path class="st4" d="M513.67,330.01c0.04,0.94,0.08,1.87,0.12,2.81c-0.93,0.3-1.9,0.14-2.85,0.31c-1.1,0.2-2.27,0.21-3.26,0.71
			c-1.5,0.76-3.09,1.31-4.64,1.93c-2.14,0.86-4.26,0.41-6.42-0.37c-2.02-0.73-4.02-1.52-5.99-2.36c-0.99-0.43-1.84-1.05-2.7-1.66
			c1.44-0.19,2.87-0.4,4.31-0.56c0.83-0.09,1.57-0.42,2.29-0.79c0.4-0.08,0.72-0.31,1.02-0.55c1.32-1.08,2.51-2.29,3.68-3.53
			c0.3-0.32,0.58-0.65,0.89-0.96c0.34-0.34,0.85-0.52,1-1.05c0.85-0.4,1.51-1.16,2.49-1.3c0.92,0.31,1.57,0.86,2.06,1.75
			c0.63,1.13,1.51,2.09,2.83,2.54c1.28,0.43,3.44-0.28,4.06-1.39c0.5-0.3,0.39,0.16,0.47,0.38
			C513.25,327.28,513.46,328.65,513.67,330.01z"/>
		<path class="st5" d="M504.74,221.35c-0.01-0.77-0.02-1.54-0.02-2.32c0-0.22-0.06-0.49,0.3-0.48c2.57,0.78,5.16,1.5,7.7,2.37
			c1.84,0.62,3.69,1.15,5.58,1.58c0.81,0.18,0.2,0.69,0.31,1.03c-0.58,1.03-0.76,2.2-1.11,3.3c-1.13,3.65-1.98,7.36-2.46,11.16
			c-0.03,0-0.07,0-0.1,0c-0.29-0.87-0.9-1.16-1.81-1.11c-1.09,0.06-2.19,0-3.29-0.01c0.11-1.24,0.21-2.48,0.34-3.72
			c0.19-1.73,0.2-1.73-1.5-1.89c-0.95-0.09-0.94-0.09-0.52-0.98c0.26-0.55,0.61-1.03,0.22-1.73c-0.79-1.46-1.41-3.01-2.2-4.46
			C505.69,223.18,505.42,222.15,504.74,221.35z"/>
		<path class="st4" d="M515.04,237.99c0.47-3.8,1.33-7.51,2.46-11.16c0.34-1.11,0.53-2.27,1.11-3.3c0.94,0.79,1.39,1.83,1.29,3.03
			c-0.11,1.35,0.15,2.58,0.81,3.75c0.27,0.47,0.4,1,0.28,1.51c-0.4,1.7,0.3,3.14,0.93,4.63c1.35,3.21,2.6,6.46,3.4,9.86
			c0.09,0.4,0.12,0.82,0.18,1.23c-0.17-0.1-0.35-0.16-0.52-0.3c-0.97-0.85-2.18-0.95-2.92-0.14c-0.59,0.64-1.35,1.02-1.99,1.56
			c-0.29-0.51-0.52-1.07-0.88-1.53c-0.69-0.88-1.28-1.88-2.42-2.29c-0.32-0.25-0.72-0.29-1.07-0.43c-0.05-0.16,0-0.36-0.19-0.46
			C515.35,241.96,515.2,239.97,515.04,237.99z"/>
		<path class="st4" d="M503.6,207.42c-1.09-1.01-1.52-0.59-2.62,0.53c-0.23,0.23-0.41,0.52-0.69,0.72c-1.91,1.37-4,2.27-6.36,2.48
			c-0.45,0.04-0.89-0.03-1.32-0.12c-0.66-0.15-0.93,0.15-0.93,0.77c0,0.55,0.02,1.09,0.1,1.64c0.11,0.8,0.17,1.58-0.05,2.4
			c-0.28,1.03,0.15,1.99,0.55,2.96c-0.65,0.16-0.71-0.39-0.85-0.71c-0.28-0.65-0.62-1.25-1.12-1.75c-0.26-0.76-0.87-1.31-1.18-2.07
			c-1.31-3.28-1.36-6.5,0.3-9.65c0.35-0.67,0.87-1.31,1.45-1.81c2.39-2.04,5.14-2.45,8.09-1.49c0.85,0.27,1.65,0.71,2.45,1.11
			c0.94,0.48,1.51,1.28,1.61,2.33C503.13,205.67,503.51,206.51,503.6,207.42z"/>
		<path class="st8" d="M564.89,290.35c0.31-0.11,0.62-0.22,0.93-0.33c0.55,1.14,1.09,2.29,1.66,3.43c1.09,2.16,2.19,4.31,3.29,6.46
			c1.23,2.41,2.47,4.81,3.69,7.22c0.97,1.92,1.92,3.85,2.89,5.77c0.97,1.92,1.97,3.83,2.95,5.75c1.27,2.49,2.55,4.99,3.81,7.49
			c0.6,1.18,1.22,2.35,1.75,3.57c0.75,1.72,0.22,3.34-0.42,4.98c-0.68,1.74-1.98,2.37-3.72,2.37c-15.22,0-30.44-0.01-45.66,0.01
			c-1.56,0-2.87-0.39-3.76-1.77c-0.05-0.08-0.17-0.12-0.25-0.18c0.65-0.08,1.31-0.16,1.96-0.25c0.65,0.48,1.37,0.77,2.19,0.77
			c15.03,0,30.07,0,45.1,0c0.54,0,1.03-0.06,1.57-0.27c2.27-0.89,3.22-3.24,2.11-5.44c-1.04-2.06-2.06-4.13-3.12-6.19
			c-1.52-2.98-3.08-5.95-4.6-8.94c-1.88-3.68-3.74-7.36-5.6-11.05c-1.03-2.04-2.01-4.1-3.08-6.12
			C567.32,295.24,566.09,292.8,564.89,290.35z"/>
		<path class="st9" d="M499.23,325.95c-1.17,1.24-2.36,2.45-3.68,3.53c-0.29,0.24-0.62,0.48-1.02,0.55
			c-2.97-0.01-5.95-0.02-8.92-0.03c-4.98,0-9.96-0.01-14.95,0.01c-0.71,0-0.82-0.21-0.67-0.85c0.46-2.07,1.88-3.36,3.92-3.28
			c1.54,0.06,3.08-0.01,4.61-0.02c0.48,0.06,0.96,0.06,1.44,0c2.03,0.07,4.06,0.06,6.1,0.01c0.48,0.06,0.96,0.07,1.44-0.01
			c1.09,0.08,2.19,0.07,3.28,0c0.14,0.02,0.28,0.03,0.42,0.05c1.22,0,2.45-0.02,3.67,0.02c0.58,0.02,0.77-0.15,0.76-0.75
			c-0.03-1.93-0.02-3.86-0.01-5.79c0-0.27-0.11-0.58,0.13-0.82c0,2.15,0.02,4.31,0,6.46c-0.01,0.64,0.1,0.94,0.84,0.88
			C497.46,325.86,498.35,325.94,499.23,325.95z"/>
		<path class="st9" d="M490.14,260.88c-3.74-0.08-7.48-0.16-11.22-0.25c-1.22-0.03-2.44-0.05-3.65-0.08
			c-3.24-0.56-6.54-0.38-9.8-0.6c-3.23-0.22-6.46-0.35-9.69-0.53c-0.15-0.01-0.3-0.07-0.45-0.1c25.51,0,51.02,0,76.53,0
			c0.1,0,0.21,0.01,0.31,0.01c-0.34,0.17-0.71,0.11-1.07,0.14c-2.64,0.18-5.27,0.35-7.91,0.52c-1.66,0.09-3.31,0.18-4.97,0.27
			c-2.54-0.09-5.04,0.47-7.57,0.4c-2.21,0.05-4.41,0.09-6.62,0.14c-0.04,0.02-0.09,0.04-0.13,0.06l-0.01-0.01
			c-1.92,0.01-3.84,0.03-5.77,0.04c-0.79,0-1.57-0.01-2.36-0.01c-1.51,0-3.03,0-4.54,0C490.87,260.88,490.51,260.88,490.14,260.88z"
			/>
		<path class="st7" d="M520.08,248.65c0.64-0.54,1.4-0.92,1.99-1.56c0.74-0.81,1.94-0.71,2.92,0.14c0.17,0.15,0.35,0.2,0.52,0.3
			c1.59,1.15,3.46,1.16,5.3,1.26c0.59,0.03,0.74,0.12,0.61,0.77c-0.34,1.68-0.46,3.4-0.36,5.12c-0.27,0.08-0.54,0.09-0.8,0.01
			c-0.52-0.51-1.17-0.2-1.75-0.22c-0.39-0.02-0.89-0.27-1.21,0.22c-0.68,0.08-1.37,0.06-2.05,0c-0.23-0.44-0.76-0.51-1.08-0.85
			c-0.41-0.45-0.83-0.4-1.29-0.01c-0.43,0.37-0.91,0.71-1.54,0.62c-0.69-0.63-1.22-1.32-1.28-2.31c-0.02-0.31-0.12-0.64-0.46-0.86
			c-0.46-0.29-0.48-0.72-0.33-1.24C519.41,249.51,519.89,249.17,520.08,248.65z"/>
		<path class="st10" d="M479.97,325.87c-0.48,0.07-0.96,0.07-1.44,0c0.28-2.35,0.56-4.7,0.85-7.05c0.29-2.3,0.59-4.59,0.89-6.88
			c0.46-3.58,0.92-7.17,1.37-10.75c0.35-2.79,0.66-5.58,1-8.36c0.31-2.55,0.64-5.11,0.96-7.66c0.46,0.21,0.92,0.42,1.38,0.63
			c-0.08,0.64-0.17,1.29-0.25,1.93c-0.28,2.27-0.57,4.54-0.85,6.81c-0.29,2.35-0.56,4.7-0.85,7.04c-0.39,3.12-0.8,6.24-1.19,9.36
			c-0.29,2.3-0.55,4.59-0.84,6.89C480.66,320.51,480.31,323.19,479.97,325.87z"/>
		<path class="st8" d="M543.9,222.17c0.47-1.34,0.74-2.73,1.2-4.07c0.76-2.2,1.8-4.24,3.03-6.2c0.55-0.87,1.16-1.69,1.87-2.44
			c0.5,0.76,1.04,1.48,1.76,2.05c-1.47,1.79-2.19,3.95-2.81,6.12c-0.83,2.9-1.52,5.84-2.27,8.76c-0.9-0.84-1.8-1.68-2.71-2.52
			c-0.26-0.24-0.18-0.49-0.11-0.78C543.92,222.8,543.89,222.48,543.9,222.17z"/>
		<path class="st11" d="M487.93,331.38c0.87,0.61,1.71,1.23,2.7,1.66c1.98,0.85,3.97,1.63,5.99,2.36c2.15,0.78,4.28,1.23,6.42,0.37
			c1.55-0.62,3.14-1.17,4.64-1.93c0.99-0.5,2.16-0.52,3.26-0.71c0.94-0.17,1.92-0.01,2.85-0.31c0.38,1.1,0.33,2.23-0.02,3.31
			c-0.16,0.51-0.7,0.64-1.24,0.64c-1.67-0.01-3.34-0.02-5.01,0.01c-0.52,0.01-0.63-0.18-0.58-0.64c0.03-0.25,0.01-0.51,0.01-0.68
			c-3.21,1.48-6.5,2.01-9.97,1.23c-2.54-0.57-4.88-1.68-7.31-2.55c-0.57-0.21-1.09-0.55-1.64-0.81c-0.87-0.4-0.96-0.64-0.49-1.47
			C487.64,331.68,487.7,331.46,487.93,331.38z"/>
		<path class="st3" d="M475.27,260.55c1.22,0.03,2.43,0.05,3.65,0.08c-0.57,2.69-1.11,5.39-2.03,7.99
			c-0.45,1.26-1.09,2.46-1.64,3.69c-0.48-2.17-0.63-4.37-0.56-6.58C474.73,263.99,474.94,262.26,475.27,260.55z"/>
		<path class="st11" d="M534.02,334.88c-0.65,0.08-1.31,0.16-1.96,0.25c-1.9,0.11-3.81,0.12-5.55-0.74
			c-0.89-0.44-1.69-1.12-1.55-2.33c0.88-0.91,1.85-1.67,3.09-2.04c0.87,2.48,2.71,3.38,4.94,3.26c1.76-0.09,3.54,0.01,5.3,0.02
			c-0.93,0.58-1.89,1.09-2.99,1.27C534.87,334.64,534.45,334.77,534.02,334.88z"/>
		<path class="st4" d="M528.05,330.02c-1.23,0.37-2.21,1.13-3.09,2.04c-1.11-1.14-2.13-2.42-3.95-2.37
			c-0.24,0.01-0.53-0.08-0.58,0.32c-0.04,0.35-0.31,0.19-0.48,0.15c-0.95-0.24-1.9-0.51-2.86-0.76c0-0.05-0.01-0.1-0.03-0.15
			c0.12-0.43-0.15-0.92,0.19-1.33c0.89,0.4,1.87,0.32,2.8,0.51c1.84,0.38,3.59,0.94,4.98,2.3c0.2,0.19,0.42,0.31,0.66,0.02
			c0.58-0.71,1.44-0.99,2.22-1.39C527.95,329.58,528,329.8,528.05,330.02z"/>
		<path class="st9" d="M517.06,329.25c0.02,0.05,0.03,0.1,0.03,0.15c0.05,0.46-0.11,0.64-0.61,0.62c-0.94-0.04-1.88-0.01-2.82-0.01
			c-0.21-1.37-0.42-2.73-0.63-4.1c0.36,0,0.71,0,1.07,0.01c0.56,0.2,1.1,0.45,1.6,0.78l0,0c0.04,0.04,0.08,0.09,0.13,0.13
			C516.37,327.57,516.85,328.34,517.06,329.25z"/>
		<path class="st12" d="M541.08,221.86c-0.27-0.35,0.01-0.64,0.14-0.91c0.91-1.87,1.72-3.76,2.23-5.79c0.13-0.53-0.04-1.15,0.46-1.7
			c-0.13,2.53,0.22,4.97-0.31,7.38c-0.07,0.32-0.02,0.67-0.02,1.01C542.74,221.39,541.91,221.37,541.08,221.86z"/>
		<path class="st3" d="M484.97,285.8c-0.46-0.21-0.92-0.42-1.38-0.63c-0.67-0.54-1.43-0.92-2.19-1.3c-0.45-0.23-0.82-0.53-1.15-0.89
			c0.21-0.6,0.7-1.08,0.83-1.72c0.14-0.01,0.24,0.04,0.33,0.15c1.4,1.78,2.7,3.65,4.89,4.59c0.13,0.05,0.08,0.17,0.06,0.27
			C485.89,286.11,485.43,285.96,484.97,285.8z"/>
		<path class="st7" d="M533.7,254.67c-0.05,0-0.11,0.01-0.16,0.01c0.01-0.23,0.03-0.47,0.04-0.7
			C533.72,254.2,533.67,254.44,533.7,254.67z"/>
		<path class="st4" d="M539.5,270.86c0.35,0.92,1.01,1.54,1.91,1.92c-1.65,2.32-3.36,4.6-4.92,6.97c-1.5,2.28-3.15,4.41-5.04,6.38
			c-0.12,0.13-0.27,0.24-0.41,0.36c-1.15,0.33-2.34,0.33-3.52,0.44c-1.24,0.11-1.34,0.24-1.31,1.54c-0.11,0.72-0.23,1.44-0.34,2.16
			c-0.39,2.47-0.71,4.95-1.66,7.29c-0.54,1.33-1.01,2.68-1.52,4.02c-0.38,0.55-0.54,1.2-0.77,1.81c-0.04,0.09-0.09,0.17-0.13,0.26
			l0.01-0.01c-0.56,1.27-1.14,2.54-1.66,3.83c-0.24,0.59-0.69,1.11-0.72,1.78c-0.49,0.68-0.72,1.48-1.06,2.22
			c-0.71,1.57-1.43,3.14-2.13,4.71c-0.18,0.42-0.36,0.55-0.79,0.26c-0.36-0.24-0.78-0.4-1.17-0.59l0.01,0.01
			c-0.28-0.17-0.43-0.52-0.79-0.57c-1.72-0.66-3.28-1.74-5.18-1.91c-1.1-0.33-2.15-0.72-2.88-1.7c-0.3-0.41-0.47-0.75-0.27-1.27
			c0.75-1.93,1.49-3.87,2.17-5.83c0.45-1.29,1.01-2.55,1.31-3.9c0.49-0.84,0.64-1.81,1.03-2.69c0.31-0.91,0.62-1.81,0.93-2.72
			c0.79-2.38,1.66-4.74,2.34-7.16c0.99-2.84,1.83-5.72,2.47-8.66c0.35-1.63,0.87-3.2,2.02-4.49c0.31-0.47,0.78-0.76,1.27-0.98
			c0.91-0.42,1.83-0.84,2.77-1.2c2.7-1.05,5.6-0.92,8.4-1.38c2.04-0.34,4.15-0.23,6.23-0.41c0.92-0.08,1.88,0.03,2.78-0.34
			C539.09,270.95,539.29,270.9,539.5,270.86z"/>
		<path class="st10" d="M561.13,290.97c0.8,1.57,1.6,3.15,2.41,4.72c1.23,2.41,2.45,4.82,3.68,7.23c1.28,2.53,2.57,5.06,3.85,7.58
			c1.52,2.99,3.03,5.98,4.55,8.97c0.98,1.92,1.93,3.86,2.97,5.75c1.53,2.77,1.09,5.11-1.16,7.25c-0.71,0.67-1.67,0.8-2.63,0.8
			c-11.7,0-23.4,0-35.09,0c-0.47,0-0.94,0.01-1.41,0.01c-1.77-0.01-3.54-0.11-5.3-0.02c-2.22,0.12-4.07-0.78-4.94-3.26
			c-0.05-0.22-0.1-0.44-0.14-0.65c0.12-2.12,0.45-4.22,0.78-6.32c0.1-2.02,0.5-4.01,0.71-6.02c0.21-1.93,0.47-3.86,0.71-5.79
			c0.04-0.2,0.1-0.41,0.13-0.61c0.37-2.89,0.75-5.78,1.11-8.67c0.22-1.78,0.42-3.56,0.63-5.34c0.37-2.77,0.74-5.53,1.11-8.3
			c0.43,0.06,0.86,0.11,1.29,0.17c-0.15,1.13-0.3,2.26-0.44,3.39c-0.28,2.16-0.55,4.31-0.82,6.47c-0.06,0.33-0.13,0.66-0.18,1
			c-0.58,4.36-1.15,8.71-1.73,13.07c-0.29,2.32-0.59,4.64-0.88,6.96c-0.23,1.85-0.58,3.7-0.68,5.57c-0.29,1.16-0.41,2.33-0.46,3.52
			c-0.01,0.39-0.1,0.79,0.12,1.15c0.21,1.29,1.37,2.28,2.73,2.29c2.4,0.01,4.8,0,7.19,0.01c0.26,0,0.52,0.01,0.74-0.17
			c0.26,0.28,0.59,0.15,0.89,0.15c11.28,0.01,22.57-0.03,33.85,0.04c2.56,0.02,3.75-1.89,3.3-4.22c-0.16-0.83-0.6-1.55-0.97-2.29
			c-1.31-2.58-2.64-5.14-3.96-7.71c-1.32-2.57-2.63-5.14-3.94-7.71c-1.25-2.46-2.49-4.92-3.75-7.37c-1.28-2.5-2.63-4.97-3.86-7.49
			c-0.67-1.38-1.5-2.68-2-4.14C560.07,290.99,560.6,290.98,561.13,290.97z"/>
		<path class="st13" d="M533.08,288.32c-0.37,2.77-0.74,5.53-1.11,8.3c-0.35-0.13-0.31-0.52-0.5-0.76
			c-1.17-1.49-2.16-3.09-3.24-4.65c-0.65-0.93-1.07-2.04-2.02-2.75c-0.03-1.31,0.07-1.43,1.31-1.54c1.18-0.1,2.37-0.11,3.52-0.44
			c-0.08,0.53-0.68,0.66-0.88,1.13C531.11,287.98,532.2,287.75,533.08,288.32z"/>
		<path class="st13" d="M533.11,298.35c0.27-2.16,0.55-4.31,0.82-6.47c0.14-1.13,0.29-2.26,0.44-3.39c0.92,0.1,1.86,0.16,2.76,0.43
			c-0.3,1.07-0.76,2.1-0.92,3.21c-0.42,0.83-0.6,1.74-0.86,2.62c-0.44,1.48-0.81,2.98-1.48,4.38
			C533.48,299,533.44,298.54,533.11,298.35z"/>
		<path class="st8" d="M536.2,292.13c0.16-1.11,0.62-2.14,0.92-3.21c0.28,0.02,0.55,0.04,0.83,0.07c-0.28,2.36-0.56,4.72-0.85,7.08
			c-0.23,1.9-0.49,3.79-0.72,5.69c-0.03,0.24-0.05,0.46-0.17,0.67c-0.43-0.47-0.91-0.91-1.1-1.55c0.21-1.4,0.49-2.8,0.6-4.21
			C535.83,295.15,536.24,293.67,536.2,292.13z"/>
		<path class="st8" d="M509.84,236.87c1.1,0.01,2.2,0.07,3.29,0.01c0.91-0.05,1.51,0.24,1.81,1.11c-0.01,0.18-0.02,0.36-0.03,0.54
			c-0.17,1.91-0.54,3.8-0.63,5.72c-0.01,0.05-0.01,0.1,0,0.16c-0.35,0.43-0.15,0.96-0.22,1.43c-0.27,1.71-0.55,3.43-0.57,5.17
			c-0.31,1.21-0.39,2.45-0.49,3.69c-0.28,0.02-0.57,0.06-0.85,0.06c-7.91,0-15.82,0-23.73,0c-0.27,0-0.58,0.1-0.82-0.12
			c-0.14-1.47-0.29-2.95-0.44-4.42c-0.25-0.49,0.01-1.07-0.25-1.56c-0.4-3.3-0.82-6.59-1.18-9.89c-0.16-1.48,0.65-1.96,1.63-1.88
			c0.57,0.05,1.14-0.01,1.71-0.01c1.76,0,3.51,0,5.27,0.01c1.21,0,2.41,0.01,3.62,0.01c0.91,0,1.81,0,2.72,0c1.25,0,2.5,0,3.75-0.01
			C506.23,236.88,508.03,236.88,509.84,236.87z M500.55,246.93c0.87,0,1.35-0.33,1.35-0.95c-0.01-0.59-0.45-0.91-1.29-0.93
			c-0.87-0.02-1.37,0.31-1.39,0.91C499.2,246.58,499.67,246.92,500.55,246.93z"/>
		<path class="st14" d="M520.08,248.65c-0.19,0.52-0.67,0.85-0.83,1.4c-0.15,0.52-0.13,0.95,0.33,1.24
			c0.34,0.21,0.44,0.55,0.46,0.86c0.07,0.99,0.6,1.68,1.28,2.31c0,0.07,0,0.15,0,0.22c-1.41,0.08-2.82,0.11-4.24-0.02
			c-0.11-0.64-0.27-1.27-0.31-1.92c-0.04-0.76-0.31-1.11-1.12-0.98c-0.61,0.1-1.06-0.17-1.27-0.77c0.39,0.01,0.77,0.01,1.15,0.13
			c0.51,0.16,0.91-0.06,1.19-0.51c0.97-1.57,1.3-4.03,0.05-5.79c1.14,0.4,1.74,1.41,2.42,2.29
			C519.56,247.58,519.79,248.14,520.08,248.65z"/>
		<path class="st14" d="M485.44,249.12c0.44,0.28,0.94,0.08,1.4,0.17c-0.25,0.3-0.51,0.6-0.76,0.9c-0.74,1.39-0.9,2.86-0.65,4.4
			c-0.02,0.03-0.02,0.05-0.02,0.08c-1.46,0.07-2.92,0.12-4.38-0.03C481.48,251.99,482.88,250.09,485.44,249.12z"/>
		<path class="st11" d="M514.39,251c0.22,0.6,0.66,0.87,1.27,0.77c0.81-0.13,1.08,0.22,1.12,0.98c0.04,0.64,0.2,1.28,0.31,1.92
			c-1.36,0.11-2.73,0.04-4.09,0.04c0.1-1.24,0.18-2.48,0.49-3.69C513.79,250.85,514.09,250.73,514.39,251z"/>
		<path class="st7" d="M485.44,254.59c-0.26-1.54-0.1-3.01,0.65-4.4c0.35,0.01,0.71,0.01,1.06,0.02c0.15,1.47,0.29,2.95,0.44,4.42
			c-0.08,0-0.16-0.01-0.25-0.01c-0.41-0.01-0.81-0.1-1.21,0.05c-0.19,0-0.38-0.01-0.57-0.01
			C485.52,254.63,485.49,254.6,485.44,254.59z"/>
		<path class="st15" d="M521.32,254.68c0-0.07,0-0.15,0-0.22c0.63,0.09,1.11-0.25,1.54-0.62c0.46-0.4,0.88-0.44,1.29,0.01
			c0.32,0.35,0.85,0.41,1.08,0.85C523.93,254.74,522.63,254.77,521.32,254.68z"/>
		<path class="st15" d="M527.29,254.7c0.32-0.49,0.82-0.24,1.21-0.22c0.58,0.02,1.23-0.29,1.75,0.22
			C529.26,254.7,528.28,254.7,527.29,254.7z"/>
		<path class="st12" d="M486.12,254.67c0.4-0.14,0.81-0.05,1.21-0.05C486.94,254.81,486.53,254.75,486.12,254.67z"/>
		<path class="st12" d="M485.44,254.59c0.05,0.01,0.09,0.04,0.11,0.07c0,0-0.06,0.03-0.06,0.03s-0.07-0.02-0.07-0.02
			C485.42,254.65,485.42,254.62,485.44,254.59z"/>
		<path class="st13" d="M486.36,286.27c0.02-0.1,0.06-0.22-0.06-0.27c-2.19-0.93-3.5-2.81-4.89-4.59c-0.09-0.11-0.19-0.16-0.33-0.15
			c0.91-1.51,1.59-3.14,2.36-4.72c0.88-1.8,1.7-3.62,2.53-5.43c0.44-0.96,0.69-2,1.33-2.87c1.27,0.57,2.56,1.12,3.93,1.44
			c0.01,0.21,0.02,0.42,0.02,0.63c0,13.79,0,27.58,0,41.38c0,0.21-0.02,0.42-0.03,0.62c-0.46,0.03-0.91,0.21-1.39,0.14
			c-0.11-0.41-0.22-0.83-0.33-1.24c-0.32-1.48-0.62-2.96-1.08-4.4c-0.49-2.15-0.95-4.32-1.49-6.46c-0.76-3.05-1.31-6.11-1.2-9.27
			C485.79,289.45,486.06,287.86,486.36,286.27z"/>
		<path class="st16" d="M491.21,269.68c-1.37-0.32-2.65-0.87-3.93-1.44c0.22-1.21,0.89-2.25,1.3-3.39c0.48-1.34,1.04-2.65,1.56-3.97
			c0.36,0,0.73,0,1.09,0C491.23,263.81,491.22,266.75,491.21,269.68z"/>
		<path class="st4" d="M494.33,236.88c-1.76,0-3.51,0-5.27-0.01c-0.42-1.17-0.8-2.36-1.26-3.51c-0.2-0.51-0.16-0.82,0.33-1.08
			c0.41-0.22,0.78-0.52,1.19-0.74c0.6-0.32,0.42-0.56-0.01-0.88c-1.19-0.88-1.16-0.88-0.73-2.32c0.79-2.64,1.55-5.29,2.32-7.93
			c0.04-0.15,0.11-0.29,0.17-0.44c0.33,0.37,0.65,0.73,0.98,1.1c-0.01,0.12-0.05,0.26,0.09,0.34c0,0-0.03,0.01-0.03,0.01
			c0.12,1.04,0.5,2,0.85,2.97c0.83,2.36,1.17,4.83,1.43,7.31C494.36,233.43,494.35,235.16,494.33,236.88z"/>
		<path class="st4" d="M509.84,236.87c-1.81,0-3.62,0.01-5.43,0.01c-0.17-2.5-0.57-4.99-0.51-7.51c0.02-0.68,0.18-1.38-0.12-2.04
			l-0.05,0c0.78-1.92,0.76-3.97,1-5.98c0.68,0.81,0.95,1.84,1.45,2.74c0.79,1.46,1.41,3.01,2.2,4.46c0.39,0.71,0.04,1.18-0.22,1.73
			c-0.43,0.89-0.43,0.89,0.52,0.98c1.7,0.16,1.69,0.16,1.5,1.89C510.05,234.39,509.96,235.63,509.84,236.87z"/>
		<path class="st15" d="M494.38,231.71c-0.26-2.48-0.59-4.95-1.43-7.31c-0.34-0.98-0.73-1.94-0.85-2.97
			c0.54-0.08,0.64,0.32,0.75,0.69c0.41,1.36,0.93,2.67,1.82,3.8c0.57,1.14,1.31,2.16,2.24,3.04c0.49,0.47,1.03,0.89,1.55,1.33
			c-0.62,0.52-1.12,1.14-1.42,1.9c-0.34,0.64-0.67,1.28-1.02,1.91c-0.08,0.14-0.05,0.43-0.3,0.38c-0.19-0.04-0.18-0.29-0.25-0.45
			C495.09,233.26,494.87,232.42,494.38,231.71z"/>
		<path class="st17" d="M501.72,229.04c0.64-0.44,1.43-0.7,1.7-1.55c0.03-0.08,0.21-0.11,0.32-0.16c0,0,0.05,0,0.05,0
			c0.3,2.76-0.47,5.3-1.62,7.8c-0.64-0.67-0.7-1.61-1.38-2.15c0.02-0.24-0.08-0.43-0.21-0.64c-0.43-0.69-0.86-1.39-1.05-2.2
			C500.3,229.85,501.09,229.6,501.72,229.04z"/>
		<path class="st12" d="M501.72,229.04c-0.63,0.55-1.42,0.81-2.18,1.1c-0.36,0.08-0.7,0.24-1.08,0.15
			c-0.52-0.44-1.05-0.86-1.55-1.33c-0.92-0.88-1.67-1.9-2.24-3.04c0.56,0.48,1.17,0.92,1.68,1.46c1.37,1.45,3.03,1.91,4.95,1.58
			C501.46,228.93,501.61,228.89,501.72,229.04z"/>
		<path class="st15" d="M492.13,221.42c-0.14-0.09-0.09-0.22-0.09-0.34C492.16,221.16,492.17,221.28,492.13,221.42z"/>
		<path class="st10" d="M487.15,250.22c-0.35-0.01-0.71-0.01-1.06-0.02c0.25-0.3,0.51-0.6,0.76-0.9c0.02-0.21,0.04-0.42,0.06-0.64
			C487.15,249.15,486.89,249.73,487.15,250.22z"/>
		<path class="st18" d="M503.61,322.64c0.47-0.92,1.19-1.66,1.72-2.54c1.12-1.87,1.87-3.92,2.87-5.85c0.08-0.15,0.08-0.35,0.12-0.52
			c1.9,0.17,3.46,1.25,5.18,1.91c0.01,0.55,0.41,0.55,0.79,0.57c0,0-0.01-0.01-0.01-0.01c0.04,0.09,0.04,0.24,0.11,0.27
			c0.82,0.41,0.59,0.99,0.29,1.61c-0.22,0.46-0.57,0.87-0.56,1.42c-0.39,0.85-0.79,1.71-0.8,2.67c-0.62,1.04-0.6,2.22-0.75,3.36
			c-0.62,1.11-2.78,1.83-4.06,1.39c-1.31-0.44-2.2-1.4-2.83-2.54C505.18,323.5,504.53,322.96,503.61,322.64z"/>
		<path class="st11" d="M497.36,316.88c0.39,1.08,0.52,2.23,0.91,3.32c0.55,1.57,1.58,2.74,2.85,3.74
			c-0.15,0.53-0.65,0.71-0.99,1.05c-0.31,0.31-0.6,0.64-0.89,0.96c-0.88-0.01-1.77-0.09-2.64-0.02c-0.74,0.06-0.85-0.24-0.84-0.88
			c0.03-2.15,0.01-4.31,0-6.46c0,0,0.03-0.05,0.03-0.05C496.5,318.16,496.88,317.48,497.36,316.88z"/>
		<path class="st11" d="M514.28,244.26c0.09-1.92,0.45-3.81,0.63-5.72c0.02-0.18,0.02-0.36,0.03-0.54c0.03,0,0.07,0,0.1,0
			c0.16,1.98,0.31,3.97,0.47,5.95C515.04,243.81,514.73,244.3,514.28,244.26z"/>
		<path class="st7" d="M514.39,251c-0.3-0.27-0.6-0.15-0.9,0.01c0.01-1.74,0.3-3.45,0.57-5.17c0.07-0.47-0.13-1,0.22-1.43
			c0.48,0,0.95-0.01,1.43-0.01c0.36,0.14,0.76,0.19,1.07,0.43c1.25,1.76,0.92,4.22-0.05,5.79c-0.27,0.45-0.68,0.66-1.19,0.51
			C515.16,251.01,514.77,251.01,514.39,251z"/>
		<path class="st10" d="M515.7,244.4c-0.48,0-0.95,0.01-1.43,0.01c0-0.05,0-0.1,0-0.16c0.45,0.04,0.76-0.45,1.24-0.32
			C515.7,244.04,515.65,244.24,515.7,244.4z"/>
		<path class="st6" d="M491.21,269.68c0.01-2.93,0.01-5.87,0.02-8.8c1.51,0,3.03,0,4.54,0c0,3.4,0.01,6.81,0.01,10.21
			c-0.01,0.21-0.03,0.42-0.03,0.62c0,12.9,0,25.79,0,38.69c0,0.26,0.02,0.52,0.03,0.78c0,2.45,0,4.9,0,7.36c0,0-0.03,0.05-0.03,0.05
			c-0.24,0.24-0.13,0.55-0.13,0.82c-0.01,1.93-0.03,3.86,0.01,5.79c0.01,0.59-0.18,0.77-0.76,0.75c-1.22-0.04-2.45-0.02-3.67-0.02
			c0-2.36,0.01-4.71,0.01-7.07c0-2.18,0-4.36,0-6.54c0.01-0.21,0.03-0.42,0.03-0.62c0-13.79,0-27.58,0-41.38
			C491.24,270.1,491.22,269.89,491.21,269.68z"/>
		<path class="st10" d="M486.07,325.88c0.32-2.63,0.63-5.25,0.95-7.88c0.34-2.81,0.68-5.62,1.03-8.42c0.12-0.92,0.12-1.86,0.37-2.77
			c0.45,1.44,0.76,2.92,1.08,4.4c-0.19,0.01-0.26,0.13-0.28,0.31c-0.32,2.7-0.63,5.4-0.95,8.1c-0.25,2.08-0.5,4.17-0.75,6.25
			C487.03,325.94,486.55,325.93,486.07,325.88z"/>
		<path class="st11" d="M490.79,325.87c-0.22-0.72-0.74-1.28-1.07-1.96c-0.89-1.83-0.86-3.72-0.57-5.65
			c0.1-0.64,0.02-1.35,0.51-1.89c0.3,0.96,0.68,1.87,1.55,2.48c0,2.36-0.01,4.71-0.01,7.07
			C491.06,325.9,490.93,325.89,490.79,325.87z"/>
		<path class="st18" d="M498.13,260.89c1.92-0.01,3.84-0.03,5.77-0.04c0.44,3.38,0.88,6.75,1.32,10.13
			c0.18,1.45,0.37,2.89,0.55,4.34c0.05,0.42,0.04,0.78-0.22,1.18c-0.79,1.22-1.51,2.48-2.25,3.73c-0.22,0.38-0.42,0.27-0.66,0.03
			c-0.99-0.98-1.98-1.96-2.99-2.93c-0.21-0.2-0.27-0.41-0.3-0.68c-0.14-1.66-0.29-3.32-0.44-4.99c-0.06-1.06-0.11-2.12-0.19-3.18
			C498.54,265.95,498.33,263.42,498.13,260.89z"/>
		<path class="st16" d="M505.21,270.98c-0.44-3.38-0.88-6.75-1.32-10.13c0,0,0.01,0.01,0.01,0.01c0.06,0.01,0.1-0.01,0.13-0.06
			c2.21-0.05,4.41-0.09,6.62-0.14c0.29,0.47,0.59,0.95,0.88,1.43c0.16-0.14-0.03-0.37,0.17-0.47c0.61,1.14,1.04,2.36,1.77,3.43
			c-0.93,0.38-1.54,1.18-2.25,1.82C509.4,268.51,507.48,269.99,505.21,270.98z"/>
		<path class="st11" d="M513.47,265.04c-0.73-1.07-1.17-2.29-1.77-3.43c-0.2,0.11,0,0.33-0.17,0.47c-0.3-0.48-0.59-0.95-0.88-1.43
			c2.53,0.07,5.04-0.49,7.57-0.4c0.25,2.27,1.53,3.69,3.64,4.46c1.15,0.42,2.24,1,3.44,1.32c-0.25,0.06-0.5,0.14-0.76,0.16
			c-2.54,0.23-5.07,0.56-7.58,1.07C515.54,267.55,513.91,266.48,513.47,265.04z"/>
		<path class="st16" d="M498.13,260.89c0.2,2.53,0.41,5.06,0.6,7.59c0.08,1.06,0.13,2.12,0.19,3.18c-1.05-0.19-2.09-0.38-3.14-0.57
			c0-3.4-0.01-6.81-0.01-10.21C496.56,260.88,497.34,260.89,498.13,260.89z"/>
		<path class="st3" d="M525.3,266.04c-1.19-0.32-2.29-0.9-3.44-1.32c-2.11-0.77-3.39-2.19-3.64-4.46c1.66-0.09,3.31-0.18,4.97-0.27
			c1.23,1.86,2.11,3.88,2.7,6.03C525.69,266.02,525.49,266.03,525.3,266.04z"/>
		<path class="st18" d="M504.03,260.8c-0.03,0.05-0.07,0.07-0.13,0.06C503.94,260.84,503.99,260.82,504.03,260.8z"/>
		<path class="st5" d="M528.68,323.05c-0.33,2.1-0.66,4.19-0.78,6.32c-0.78,0.4-1.64,0.67-2.22,1.39c-0.24,0.29-0.46,0.18-0.66-0.02
			c-1.39-1.36-3.13-1.92-4.98-2.3c-0.93-0.19-1.91-0.11-2.8-0.51c-0.01-1.4-0.25-2.8,0-4.2c0.15-0.86,0.23-1.75,0.85-2.48
			c0.27,0.95,0.71,1.19,1.6,0.86c0.36-0.13,0.69-0.34,1.04-0.51c0.43-0.24,1.02-0.25,1.22-0.83c0.42-0.19,0.83-0.4,1.25-0.58
			c1.09-0.48,2.2-0.51,3.34-0.17c0.47,0.14,0.76,0.42,0.97,0.9C527.83,321.65,528.29,322.34,528.68,323.05z"/>
		<path class="st10" d="M514.11,319.5c0.57,1.48,0.71,3.07,1.09,4.6c0.21,0.85,0.48,1.7,0.5,2.6c-0.5-0.33-1.04-0.58-1.6-0.78
			c-0.27-1.25-0.53-2.5-0.8-3.74C513.33,321.21,513.72,320.36,514.11,319.5z"/>
		<path class="st10" d="M515.7,326.7c0.04,0.04,0.08,0.09,0.13,0.13C515.79,326.79,515.74,326.74,515.7,326.7z"/>
		<path class="st4" d="M529.31,329.61c-0.23-0.36-0.13-0.76-0.12-1.15c0.89-0.38,1.81-0.72,2.5-1.46c0.63-0.35,1.15-0.78,1.39-1.5
			c0.24-0.69,0.5-1.37,0.6-2.09c0.24-0.88,0.38-1.78,0.48-2.68c0.03-0.27,0.09-0.49,0.32-0.67c1.21-0.98,2.55-1.71,4.15-1.65
			c2.36,0.08,4.19-1.11,6.02-2.35c0.09-0.06,0.13-0.21,0.19-0.32c1.14,0.67,2.32,1.27,3.14,2.39c0.34,0.48,0.74,0.91,1.08,1.4
			c0.27,0.39,0.18,0.56-0.16,0.75c-0.53,0.32-1.04,0.67-1.59,0.95c-2.16,1.1-3.94,2.7-5.65,4.37c-1.05,1.02-2.25,1.81-3.61,2.2
			C535.19,328.6,532.18,328.8,529.31,329.61z"/>
		<path class="st5" d="M529.31,329.61c2.87-0.81,5.88-1.01,8.74-1.82c1.36-0.38,2.56-1.18,3.61-2.2c1.71-1.67,3.49-3.27,5.65-4.37
			c0.55-0.28,1.06-0.63,1.59-0.95c0.26,0.01,0.51,0.01,0.67,0.29c0.4,0.69,0.92,1.34,1.21,2.07c0.4,1-0.18,1.85-0.72,2.63
			c-0.79,1.14-1.95,1.89-3.03,2.71c-0.59,0.45-1.28,0.75-1.85,1.24c-0.75,0.64-0.84,0.58-1.47-0.28c-0.27-0.37-0.55-0.7-1.01-0.16
			c-0.87,1.01-1.91,1.88-2.72,2.95c-0.22,0.18-0.48,0.17-0.74,0.17c-2.4,0-4.8,0.01-7.19-0.01
			C530.67,331.89,529.52,330.9,529.31,329.61z"/>
		<path class="st18" d="M544.84,315.75c-0.06,0.11-0.1,0.26-0.19,0.32c-1.83,1.24-3.66,2.43-6.02,2.35
			c-1.6-0.06-2.94,0.67-4.15,1.65c-0.23,0.18-0.29,0.4-0.32,0.67c-0.1,0.9-0.24,1.8-0.48,2.68c-0.04-0.12-0.14-0.24-0.12-0.35
			c0.17-1.39,0.31-2.78,0.54-4.16c0.25-1.49-0.14-2.82-0.86-4.09c0.08-0.72-0.43-1.19-0.75-1.73c-0.2-0.34-0.15-0.92-0.74-0.98
			c0.7-1.12,1.59-2.12,2.62-2.89c1.33-0.99,2.45-2.1,3.22-3.56c-0.01,0.83,0.52,1.46,0.83,2.17c0.87,1.97,1.73,3.98,3.31,5.5
			C542.68,314.22,543.8,314.94,544.84,315.75z"/>
		<path class="st11" d="M537.59,305.65c-0.77,1.46-1.89,2.57-3.22,3.56c-1.03,0.77-1.92,1.77-2.62,2.89
			c-0.18,0.12-0.24,0.42-0.54,0.31c0.57-4.36,1.15-8.71,1.73-13.07c0.04-0.33,0.12-0.67,0.18-1c0.33,0.19,0.38,0.65,0.76,0.78
			c0.27,0.69,0.72,1.24,1.24,1.75c0.19,0.64,0.67,1.08,1.1,1.55c0.27,0.59,0.68,1.08,1.1,1.56
			C537.74,304.5,537.94,305.02,537.59,305.65z"/>
		<path class="st13" d="M525.3,266.04c0.2-0.01,0.39-0.01,0.59-0.02c1.74,0.07,3.48,0.23,5.16,0.69c1.63,0.45,3.29,0.89,4.8,1.66
			c1.19,0.62,2.36,1.37,3.04,2.64c-0.89,0.36-1.85,0.25-2.78,0.34c-2.07,0.19-4.18,0.07-6.23,0.41c-2.8,0.46-5.7,0.33-8.4,1.38
			c-0.94,0.36-1.85,0.79-2.77,1.2c-0.5,0.23-0.96,0.51-1.27,0.98c-0.94,0.09-1.81,0.43-2.69,0.7c-1.7,0.52-2.79,1.67-3.46,3.29
			c-0.64,1.55-0.63,3.18-0.64,4.81c-1.93,0.05-3.86,0.06-5.78,0.17c-1.3,0.07-2.63,0.01-3.87,0.42c-0.81,0.27-1.82,0.45-2.08,1.52
			c-0.19,0.78-0.31,1.58-0.47,2.36c-0.3,0.89-0.22,1.81-0.22,2.71c0.01,5.22,0,10.43,0.07,15.65c0.02,1.41-0.4,2.53-1.43,3.45
			c-0.4,0.21-0.78,0.44-1.08,0.78c-0.01-0.26-0.03-0.52-0.03-0.78c0-12.9,0-25.79,0-38.69c0-0.21,0.02-0.42,0.03-0.62
			c1.05,0.19,2.09,0.38,3.14,0.57c0.15,1.66,0.3,3.32,0.44,4.99c0.02,0.27,0.09,0.48,0.3,0.68c1.01,0.96,2,1.95,2.99,2.93
			c0.24,0.24,0.43,0.35,0.66-0.03c0.73-1.25,1.46-2.51,2.25-3.73c0.26-0.4,0.27-0.76,0.22-1.18c-0.19-1.45-0.37-2.89-0.55-4.34
			c2.27-0.99,4.18-2.47,6.01-4.11c0.71-0.64,1.32-1.44,2.25-1.82c0.44,1.45,2.07,2.52,3.49,2.23c2.51-0.51,5.03-0.84,7.58-1.07
			C524.79,266.18,525.04,266.09,525.3,266.04z"/>
		<path class="st5" d="M530.1,311.24c-0.63-0.74-1.26-1.47-1.89-2.21c-0.49-0.64-0.98-1.27-1.47-1.91c-0.7-0.9-1.41-1.79-2.1-2.7
			c-0.64-0.84-1.19-1.75-1.94-2.51c0.5-1.34,0.98-2.69,1.52-4.02c0.95-2.34,1.26-4.82,1.66-7.29c0.11-0.72,0.23-1.44,0.34-2.16
			c0.95,0.71,1.38,1.82,2.02,2.75c1.07,1.55,2.07,3.16,3.24,4.65c0.19,0.24,0.15,0.63,0.5,0.76c-0.21,1.78-0.41,3.56-0.63,5.34
			c-0.36,2.89-0.74,5.78-1.11,8.67C530.2,310.84,530.15,311.04,530.1,311.24z"/>
		<path class="st5" d="M510.64,284.12c0.01-1.63,0-3.26,0.64-4.81c0.67-1.62,1.76-2.78,3.46-3.29c0.89-0.27,1.76-0.61,2.69-0.7
			c-1.15,1.28-1.66,2.86-2.02,4.49c-0.64,2.94-1.48,5.82-2.47,8.66c-0.24-0.46-0.5-0.92-0.88-1.29
			C511.55,286.18,510.81,285.28,510.64,284.12z"/>
		<path class="st10" d="M507.23,287.86c0.74,3.4,1.48,6.79,2.22,10.18c0.02,0.11,0.15,0.2,0.23,0.3c-0.4,0.88-0.54,1.85-1.03,2.69
			c-0.74-3.27-1.48-6.54-2.21-9.81c-0.24-1.06-0.44-2.14-0.66-3.2C506.27,288.01,506.73,287.77,507.23,287.86z"/>
		<path class="st13" d="M522.7,301.92c0.75,0.76,1.3,1.67,1.94,2.51c0.69,0.91,1.4,1.8,2.1,2.7c0.49,0.63,0.98,1.27,1.47,1.91
			c-1.12-0.35-2.22-0.73-3.21-1.44c-0.86-0.62-1.83-1.1-2.94-1.11c-0.39,0-0.48-0.13-0.45-0.5c0.06-0.67,0.31-1.32,0.18-2
			c0,0-0.01,0.01-0.01,0.01c0.22,0.01,0.08-0.18,0.13-0.26C522.16,303.12,522.31,302.47,522.7,301.92z"/>
		<path class="st10" d="M519.42,309.59c0.61,1.96,0.94,3.99,1.43,5.99c0.37,1.49,0.68,2.99,1.01,4.49c0.05,0.23,0.07,0.46,0.1,0.69
			c-0.21,0.57-0.79,0.59-1.22,0.83c-0.7-3.08-1.39-6.15-2.09-9.23c-0.05-0.2-0.09-0.41-0.28-0.54
			C518.7,311.07,518.93,310.27,519.42,309.59z"/>
		<path class="st15" d="M514.29,316.21c-0.39-0.02-0.79-0.02-0.79-0.57C513.86,315.69,514.01,316.04,514.29,316.21z"/>
		<path class="st15" d="M521.92,303.74c-0.05,0.08,0.09,0.27-0.13,0.26C521.83,303.91,521.88,303.82,521.92,303.74z"/>
		<path class="st11" d="M529.64,324.94c0.51,0.66,0.95,1.4,1.84,1.64c0.09,0.13,0.23,0.24,0.2,0.42c-0.69,0.74-1.61,1.08-2.5,1.46
			C529.23,327.27,529.35,326.1,529.64,324.94z"/>
		<path class="st18" d="M498.45,230.3c0.38,0.09,0.73-0.07,1.08-0.15c0.19,0.81,0.62,1.51,1.05,2.2c0.13,0.2,0.23,0.39,0.21,0.64
			c-0.4,1.29-0.51,2.59-0.13,3.9c-0.91,0-1.81,0-2.72,0c0.5-1.72-0.06-3.23-0.91-4.69C497.33,231.43,497.83,230.82,498.45,230.3z"/>
		<path class="st16" d="M500.66,236.89c-0.38-1.32-0.27-2.62,0.13-3.9c0.68,0.54,0.73,1.48,1.38,2.15c1.15-2.5,1.92-5.04,1.62-7.8
			c0.29,0.66,0.14,1.37,0.12,2.04c-0.07,2.52,0.34,5.01,0.51,7.51C503.17,236.88,501.91,236.89,500.66,236.89z"/>
		<path class="st16" d="M497.03,232.2c0.85,1.46,1.41,2.97,0.91,4.69c-1.21,0-2.41-0.01-3.62-0.01c0.02-1.72,0.04-3.45,0.05-5.17
			c0.49,0.71,0.71,1.55,1.08,2.32c0.08,0.16,0.06,0.41,0.25,0.45c0.26,0.05,0.22-0.23,0.3-0.38
			C496.36,233.47,496.69,232.83,497.03,232.2z"/>
		<path class="st10" d="M500.55,246.93c-0.87,0-1.34-0.35-1.32-0.97c0.02-0.6,0.52-0.93,1.39-0.91c0.84,0.02,1.28,0.34,1.29,0.93
			C501.9,246.59,501.42,246.93,500.55,246.93z"/>
		<path class="st18" d="M491.21,318.85c-0.87-0.61-1.25-1.52-1.55-2.48c-0.03-1.31,0.26-2.61,0.16-3.93
			c0.47,0.07,0.92-0.11,1.39-0.14C491.21,314.49,491.21,316.67,491.21,318.85z"/>
		<path class="st3" d="M507.23,287.86c-0.5-0.09-0.96,0.15-1.45,0.16c-0.57-0.15-1.05,0.22-1.57,0.26
			c-1.92,0.13-3.84,0.21-5.76,0.31c0.15-0.79,0.28-1.58,0.47-2.36c0.26-1.07,1.27-1.25,2.08-1.52c1.24-0.41,2.58-0.35,3.87-0.42
			c1.92-0.11,3.86-0.12,5.78-0.17c0.17,1.16,0.9,2.06,1.42,3.05C510.46,287.4,508.84,287.63,507.23,287.86z"/>
		<path class="st18" d="M495.79,311.18c0.3-0.34,0.68-0.57,1.08-0.78c0.16,2.16,0.32,4.32,0.49,6.48c-0.47,0.6-0.86,1.28-1.57,1.66
			C495.79,316.09,495.79,313.64,495.79,311.18z"/>
		<path class="st8" d="M531.68,327c0.03-0.19-0.11-0.29-0.2-0.42c0.6-0.46,0.35-1.18,0.44-1.75c0.4-2.51,0.68-5.03,1-7.55
			c0.11-0.82,0.21-1.64,0.32-2.47c0.71,1.27,1.1,2.6,0.86,4.09c-0.23,1.38-0.37,2.77-0.54,4.16c-0.01,0.11,0.08,0.23,0.12,0.35
			c-0.11,0.72-0.37,1.4-0.6,2.09C532.83,326.23,532.31,326.66,531.68,327z"/>
	</g>
	<path class="st19" d="M-59.91,29.44c0,0,138.52-57.91,159.65,55.57s91.57,83.74,117.39,83.74s60.47,8.61,41.48,95.31
		c-19.4,88.57,93.13,120.37,128.35,119.13s-176.87,74.35-176.87,74.35l-339.65-76.7l-3.91-160.59L-59.91,29.44z"/>
</g>
</svg>
